# File created by Blade
# Date/Time:  Tue Sep 30 19:11:52 2014
#---------------------------------------------------------
:version 1.10
:name HOM
:units
  mass 1.0
  length 1.000000
  angle deg
:documentation
     Acclaim Skeleton File
:root
   axis xyz
   order TX TY TZ RX RY RZ
   position 0.000000 0.000000 0.000000
   orientation 0 0 0
:bonedata
   begin
      id 1
      name Spine_dum
      direction 0.000000 1.000000 0.000000
      length 7.508948
      axis 0.0 0.0 0.0 xyz
   end
   begin
      id 2
      name LeftUpLeg_dum
      direction 1.000000 0.000000 0.000000
      length 3.000560
      axis 0.0 0.0 0.0 xyz
   end
   begin
      id 3
      name RightUpLeg_dum
      direction -1.000000 0.000000 0.000000
      length 3.000560
      axis 0.0 0.0 0.0 xyz
   end
   begin
      id 4
      name Spine
      direction 0.000000 1.000000 0.000000
      length 0.000000
      axis 0.0 0.0 0.0 xyz
      dof rx ry rz
   end
   begin
      id 5
      name Spine_dum1
      direction 0.000000 1.000000 0.000000
      length 13.861154
      axis 0.0 0.0 0.0 xyz
   end
   begin
      id 6
      name Spine_dum2
      direction 0.000000 1.000000 0.000000
      length 8.204781
      axis 0.0 0.0 0.0 xyz
   end
   begin
      id 7
      name Spine_dum3
      direction 0.000000 1.000000 0.000000
      length 8.204781
      axis 0.0 0.0 0.0 xyz
   end
   begin
      id 8
      name Head
      direction 0.000000 1.000000 0.000000
      length 4.527550
      axis 0.0 0.0 0.0 xyz
      dof rx ry rz
   end
   begin
      id 9
      name LeftShoulder
      direction 1.000000 0.000000 0.000000
      length 6.635956
      axis 0.0 0.0 -90.0 xyz
      dof rx ry rz
   end
   begin
      id 10
      name LeftArm
      direction 1.000000 0.000000 0.000000
      length 10.274218
      axis 0.0 0.0 -90.0 xyz
      dof rx ry rz
   end
   begin
      id 11
      name LeftForeArm
      direction 1.000000 0.000000 0.000000
      length 8.522147
      axis 0.0 0.0 -90.0 xyz
      dof ry rz rx
   end
   begin
      id 12
      name LeftHand
      direction 0.000000 0.000000 0.000000
      length 0.000000
      axis 0.0 0.0 -90.0 xyz
      dof rx ry rz
   end
   begin
      id 13
      name LeftHand_dum1
      direction 0.000000 0.000000 0.000000
      length 0.000000
      axis 0.0 0.0 -90.0 xyz
   end
   begin
      id 14
      name LeftHand_dum2
      direction 1.000000 0.000000 0.000000
      length 3.937000
      axis 0.0 0.0 -90.0 xyz
   end
   begin
      id 15
      name LeftHandThumb1
      direction 0.000000 0.000000 1.000000
      length 3.937000
      axis 0.0 0.0 -90.0 xyz
      dof rx rz ry
   end
   begin
      id 16
      name RightShoulder
      direction -1.000000 0.000000 0.000000
      length 6.635956
      axis 0.0 0.0 90.0 xyz
      dof rx ry rz
   end
   begin
      id 17
      name RightArm
      direction -1.000000 0.000000 0.000000
      length 10.274218
      axis 0.0 0.0 90.0 xyz
      dof rx ry rz
   end
   begin
      id 18
      name RightForeArm
      direction -1.000000 0.000000 0.000000
      length 8.522147
      axis 0.0 0.0 90.0 xyz
      dof ry rz rx
   end
   begin
      id 19
      name RightHand
      direction 0.000000 0.000000 0.000000
      length 0.000000
      axis 0.0 0.0 90.0 xyz
      dof rx ry rz
   end
   begin
      id 20
      name RightHand_dum1
      direction 0.000000 0.000000 0.000000
      length 0.000000
      axis 0.0 0.0 90.0 xyz
   end
   begin
      id 21
      name RightHand_dum2
      direction -1.000000 0.000000 0.000000
      length 3.937000
      axis 0.0 0.0 90.0 xyz
   end
   begin
      id 22
      name RightHandThumb1
      direction 0.000000 0.000000 1.000000
      length 3.937000
      axis 0.0 0.0 90.0 xyz
      dof rx rz ry
   end
   begin
      id 23
      name LeftUpLeg
      direction 0.000000 -1.000000 0.000000
      length 16.490845
      axis 0.0 0.0 0.0 xyz
      dof rx ry rz
   end
   begin
      id 24
      name LeftLeg
      direction 0.000000 -1.000000 0.000000
      length 14.556576
      axis 0.0 0.0 0.0 xyz
      dof rx ry rz
   end
   begin
      id 25
      name LeftFoot
      direction 0.000000 -0.258819 0.965926
      length 4.831116
      axis 15.0 0.0 0.0 xyz
      dof rx ry rz
   end
   begin
      id 26
      name LeftToeBase
      direction 0.000000 0.000000 1.000000
      length 2.952750
      axis 0.0 0.0 0.0 xyz
      dof rx ry rz
   end
   begin
      id 27
      name RightUpLeg
      direction 0.000000 -1.000000 0.000000
      length 16.490845
      axis 0.0 0.0 0.0 xyz
      dof rx ry rz
   end
   begin
      id 28
      name RightLeg
      direction 0.000000 -1.000000 0.000000
      length 14.556576
      axis 0.0 0.0 0.0 xyz
      dof rx ry rz
   end
   begin
      id 29
      name RightFoot
      direction 0.000000 -0.258819 0.965926
      length 4.831116
      axis 15.0 0.0 0.0 xyz
      dof rx ry rz
   end
   begin
      id 30
      name RightToeBase
      direction 0.000000 0.000000 1.000000
      length 2.952750
      axis 0.0 0.0 0.0 xyz
      dof rx ry rz
   end
:hierarchy
   begin
      root Spine_dum LeftUpLeg_dum RightUpLeg_dum
      Spine_dum Spine
      LeftUpLeg_dum LeftUpLeg
      RightUpLeg_dum RightUpLeg
      Spine Spine_dum1 Spine_dum2 Spine_dum3
      Spine_dum1 Head
      Spine_dum2 LeftShoulder
      Spine_dum3 RightShoulder
      LeftShoulder LeftArm
      LeftArm LeftForeArm
      LeftForeArm LeftHand
      LeftHand LeftHand_dum1 LeftHand_dum2
      LeftHand_dum1 LeftHandThumb1
      RightShoulder RightArm
      RightArm RightForeArm
      RightForeArm RightHand
      RightHand RightHand_dum1 RightHand_dum2
      RightHand_dum1 RightHandThumb1
      LeftUpLeg LeftLeg
      LeftLeg LeftFoot
      LeftFoot LeftToeBase
      RightUpLeg RightLeg
      RightLeg RightFoot
      RightFoot RightToeBase
   end

# File created by Blade
# Date/Time:  Thu Sep 25 15:55:53 2014
# Frame Rate: 120.000 fps
#------------------------------------------------------
:FULLY-SPECIFIED
:DEGREES
95
root -5.031484 33.013207 -5.054263 12.670383 1.738170 0.561469
Spine -7.784014 8.651027 -0.502916
Head -14.693958 -11.123989 8.176068
LeftShoulder -9.574196 23.864505 19.002188
LeftArm 28.983217 -11.930513 -55.341063
LeftForeArm 16.066755 0.000000 44.399212
LeftHand -31.194142 0.000000 12.316221
LeftHandThumb1 -26.253704 0.000000 33.147579
RightShoulder -13.345561 10.006374 -31.675201
RightArm -12.599938 -3.584692 58.688621
RightForeArm -30.429448 -0.000000 30.976171
RightHand -6.642414 -0.000000 -6.757407
RightHandThumb1 -24.326973 -0.000000 -32.862282
LeftUpLeg -18.656544 7.291741 3.743270
LeftLeg 18.355764 -0.000000 -0.000000
LeftFoot -16.137000 3.938617 -28.636993
LeftToeBase -3.308399 -0.000000 0.000000
RightUpLeg -14.335682 -4.361318 2.449822
RightLeg 4.896697 -0.000000 -0.000000
RightFoot -6.149163 -9.475107 -8.400075
RightToeBase -1.674662 -0.000000 0.000000
96
root -5.054464 33.011660 -5.101972 12.605962 1.986572 0.568316
Spine -7.641350 8.610477 -0.470935
Head -14.711266 -11.246119 8.209795
LeftShoulder -9.527553 23.986301 18.890494
LeftArm 29.323202 -10.914137 -55.832255
LeftForeArm 16.324610 0.000000 44.943164
LeftHand -30.543539 0.000000 12.174378
LeftHandThumb1 -26.253704 0.000000 33.147579
RightShoulder -13.474510 9.930183 -31.440808
RightArm -12.743870 -4.027502 59.493154
RightForeArm -30.806052 -0.000000 31.146846
RightHand -6.443449 0.000000 -6.676481
RightHandThumb1 -24.326973 -0.000000 -32.862282
LeftUpLeg -18.744832 7.395628 3.674867
LeftLeg 19.546974 -0.000000 -0.000000
LeftFoot -17.215153 4.462268 -28.652019
LeftToeBase -2.551610 -0.000000 0.000000
RightUpLeg -14.407434 -4.313628 2.491953
RightLeg 5.031369 -0.000000 -0.000000
RightFoot -6.088350 -9.833284 -8.596879
RightToeBase -1.682935 -0.000000 0.000000
97
root -5.073325 33.009806 -5.145411 12.533161 2.147249 0.582398
Spine -7.509793 8.612289 -0.463251
Head -14.716237 -11.386728 8.241298
LeftShoulder -9.499124 23.947648 18.765005
LeftArm 29.477066 -9.740466 -56.154327
LeftForeArm 16.559492 -0.000000 45.543370
LeftHand -30.551593 0.000000 11.864499
LeftHandThumb1 -26.253704 0.000000 33.147579
RightShoulder -13.588032 9.723816 -31.167677
RightArm -12.755931 -4.311390 60.298743
RightForeArm -31.003495 -0.000000 31.263105
RightHand -6.425834 -0.000000 -6.880681
RightHandThumb1 -24.326973 -0.000000 -32.862282
LeftUpLeg -18.749974 7.557859 3.584662
LeftLeg 20.739896 -0.000000 -0.000000
LeftFoot -18.316195 5.210491 -28.639571
LeftToeBase -2.093740 -0.000000 0.000000
RightUpLeg -14.485104 -4.237062 2.508572
RightLeg 5.209495 -0.000000 -0.000000
RightFoot -6.066696 -10.158387 -8.793035
RightToeBase -1.626978 -0.000000 0.000000
98
root -5.089847 33.007127 -5.186743 12.440895 2.293170 0.569085
Spine -7.373459 8.636439 -0.413383
Head -14.706264 -11.501965 8.286578
LeftShoulder -9.443588 23.954873 18.620347
LeftArm 29.675694 -8.581808 -56.440257
LeftForeArm 16.788376 0.000000 46.092930
LeftHand -30.614628 -0.000000 11.680625
LeftHandThumb1 -26.253704 0.000000 33.147579
RightShoulder -13.762287 9.680208 -30.984125
RightArm -12.903363 -4.719924 61.168772
RightForeArm -31.159131 0.000000 31.344879
RightHand -6.708330 0.000000 -7.483144
RightHandThumb1 -24.326973 -0.000000 -32.862282
LeftUpLeg -18.670148 7.756255 3.500807
LeftLeg 21.919682 -0.000000 -0.000000
LeftFoot -19.350867 6.062617 -28.587640
LeftToeBase -1.687758 -0.000000 0.000000
RightUpLeg -14.566125 -4.206800 2.559187
RightLeg 5.432497 -0.000000 -0.000000
RightFoot -6.065192 -10.409382 -8.993896
RightToeBase -1.542960 -0.000000 0.000000
